# xmcd
#
# Track frame offsets: 
#        150
#        16761
#        39659
#        60758
#        77927
#        102937
#        127610
#        145748
#        160321
#        172993
#        188751
#        207419
#        234716
#        250290
#        268065
#        283176
#        302401
#
# Disc length: 4317 seconds
#
# Revision: 0
# Processed by: cddbd v1.5.2PL0 Copyright (c) Steve Scherf et al.
# Submitted via: ExactAudioCopy v0.99pb1
#
DISCID=e010db11
DTITLE=Bic Runga - The Acoustic Winery Tour 2007
DYEAR=2007
DGENRE=Acoustic
TTITLE0=Blue Blue Heart
TTITLE1=Precious Things
TTITLE2=Birds
TTITLE3=Bursting Through
TTITLE4=Beautiful Collision
TTITLE5=Say After Me
TTITLE6=Listening For The Weather
TTITLE7=Drive
TTITLE8=No Crying No More
TTITLE9=The Be All and End All
TTITLE10=Something Good
TTITLE11=It's Over
TTITLE12=Get Some Sleep
TTITLE13=Sway
TTITLE14=Winning Arrow
TTITLE15=Gravity
TTITLE16=Honest Goodbyes
EXTD=
EXTT0=
EXTT1=
EXTT2=
EXTT3=
EXTT4=
EXTT5=
EXTT6=
EXTT7=
EXTT8=
EXTT9=
EXTT10=
EXTT11=
EXTT12=
EXTT13=
EXTT14=
EXTT15=
EXTT16=
PLAYORDER=
